<?xml version="1.0" encoding="UTF-8"?>
<svg xmlns="http://www.w3.org/2000/svg" xmlns:xlink="http://www.w3.org/1999/xlink" width="20326.188954" height="15847.769893" viewBox="-19402.271275 -14027.012278 20326.188954 15847.769893">
<defs>
<style type="text/css">
.l0d0 {stroke: #F38400; fill: #F38400; fill-opacity: 0.5;}
</style>
</defs>
<rect x="-19402.271275" y="-14027.012278" width="20326.188954" height="15847.769893" fill="#222222" stroke="none"/>
<g id="Coupler" transform="scale(1 -1)">
<polygon id="0x150e1a1d0" class="l0d0" points="-4062.634292,3009.568509 -4981.252968,3498.006722 -4975.96344,3510.936954 -4948.633704,3580.442174 -4922.192516,3650.193328 -4896.369391,3720.273113 -4871.299571,3790.64018 -4847.030004,3861.206235 -4823.466795,3932.147867 -4800.750785,4003.200192 -4778.652839,4074.581148 -4757.443439,4146.208038 -4736.945998,4217.986968 -4717.248808,4289.964887 -4698.304924,4362.230088 -4680.072998,4434.647329 -4662.641324,4507.263558 -4646.009902,4580.078775 -4630.22568,4653.004685 -4615.106469,4726.17093 -4600.834457,4799.447868 -4587.274402,4872.876847 -4574.5146,4946.504814 -4562.648945,5020.155178 -4551.4483,5094.045879 -4541.053507,5167.91203 -4531.458967,5241.977168 -4522.711626,5316.153 -4514.723189,5390.392578 -4507.493658,5464.695901 -4501.111326,5539.109918 -4495.487899,5613.58768 -4490.623377,5688.129188 -4486.564706,5762.646147 -4483.353235,5837.273799 -4480.947616,5911.876902 -4479.300902,5986.543751 -4478.46004,6061.186051 -4478.378083,6135.892097 -4479.101977,6210.573594 -4480.631724,6285.230542 -4483.055617,6359.909888 -4486.108773,6434.470791 -4490.056075,6509.054092 -4494.856176,6583.52455 -4500.326888,6658.011806 -4506.650398,6732.386218 -4513.779761,6806.736081 -4521.62668,6881.014449 -4530.326399,6955.179972 -4539.878917,7029.232652 -4550.148992,7103.213836 -4561.183571,7177.035229 -4573.024003,7250.832073 -4585.675885,7324.380831 -4599.045325,7397.858094 -4613.314512,7471.134218 -4628.301255,7544.338845 -4644.09945,7617.295387 -4660.526907,7690.133486 -4677.854111,7762.770447 -4695.992766,7835.159322 -4714.848978,7907.4767 -4734.516642,7979.545993 -4754.907462,8051.320254 -4776.062787,8122.934723 -4798.029563,8194.301107 -4820.672549,8265.460753 -4844.126987,8336.372313 -4868.304581,8406.98884 -4893.293626,8477.357282 -4918.958882,8547.518986 -4945.394241,8617.297362 -4972.594104,8686.915947 -5000.564071,8756.151205 -5029.168901,8825.044483 -5058.585181,8893.689675 -5088.724619,8962.039835 -5119.63416,9030.006667 -5151.178564,9097.631519 -5183.534418,9165.008285 -5216.525135,9232.043072 -5250.244608,9298.559289 -5284.640291,9364.868768 -5319.853025,9430.706625 -5355.653673,9496.290796 -5392.183078,9561.356399 -5429.43564,9626.126968 -5467.370011,9690.467263 -5505.98619,9754.377283 -5545.284179,9817.857028 -5585.263978,9880.906498 -5625.878638,9943.613989 -5667.222054,10005.80291 -5709.158985,10067.51461 -5751.730777,10128.884329 -5795.031326,10189.735479 -5838.92539,10250.109407 -5883.501262,10310.053061 -5928.717596,10369.431198 -5974.480498,10428.420407 -6020.972155,10486.891048 -6068.057327,10544.884466 -6115.78296,10602.312368 -6164.102108,10659.263048 -6212.926476,10715.689559 -6262.479599,10771.597501 -6312.537943,10826.981273 -6363.236748,10881.799529 -6414.529067,10936.140563 -6466.373553,10989.869134 -6518.723258,11043.073535 -6571.760373,11095.624125 -6625.255759,11147.738841 -6679.35026,11199.152798 -6734.038275,11250.089533 -6789.143215,11300.455153 -6844.847269,11350.120013 -6901.144837,11399.307652 -6957.817983,11447.788933 -7015.13159,11495.704697 -7072.862121,11543.049345 -7131.191767,11589.693235 -7189.938338,11635.766008 -7249.237075,11681.226317 -7308.999684,11726.027216 -7369.226166,11770.168704 -7429.916519,11813.650781 -7491.023797,11856.561741 -7552.641895,11898.724996 -7614.676917,11940.317135 -7677.134464,11981.114621 -7740.09723,12021.387938 -7803.435574,12060.954897 -7867.196442,12099.727203 -7931.374234,12137.928393 -7995.927604,12175.423225 -8060.944847,12212.258646 -8126.249371,12248.340761 -8192.017768,12283.763466 -8258.161741,12318.479813 -8324.592998,12352.442854 -8391.488126,12385.746485 -8458.670537,12418.29681 -8526.228525,12450.140778 -8594.026848,12481.319734 -8662.247696,12511.704038 -8730.844121,12541.381984 -8799.592587,12570.347972 -8868.763577,12598.519308 -8938.174902,12626.025633 -9007.920457,12652.690358 -9077.906348,12678.690072 -9148.17952,12703.936481 -9218.739976,12728.429585 -9289.587714,12752.169384 -9360.634439,12775.108931 -9431.9215,12797.383467 -9503.454496,12818.769455 -9575.227827,12839.490434 -9647.111851,12859.364212 -9719.371452,12878.531633 -9791.694799,12896.940149 -9864.264081,12914.460118 -9937.073699,12931.315076 -10009.947062,12947.41113 -10083.06636,12962.618636 -10156.290752,12977.202479 -10229.672783,12990.850829 -10303.206855,13003.78722 -10376.939915,13015.923359 -10450.736721,13027.300594 -10524.64422,13037.830629 -10598.703759,13047.648706 -10672.785696,13056.572636 -10747.019675,13064.784609 -10821.317398,13072.237677 -10895.725815,13078.843546 -10970.197978,13084.69051 -11044.692539,13089.643327 -11119.203898,13093.925534 -11193.825951,13097.360541 -11268.423455,13099.989697 -11343.084704,13101.859948 -11417.768352,13102.836052 -11492.380503,13103.094599 -11567.0564,13102.594241 -11641.754696,13101.199736 -11716.381495,13099.087674 -11790.983746,13096.169761 -11865.561447,13092.445995 -11940.1146,13087.916378 -12014.643204,13082.580908 -12089.012017,13076.480934 -12163.403228,13069.486814 -12237.675995,13061.863431 -12311.882867,13053.298954 -12385.883,13044.058267 -12459.905531,13033.923434 -12533.856567,13023.071044 -12607.559516,13011.407202 -12681.19097,12999.025803 -12754.70958,12985.791605 -12828.068399,12971.792903 -12901.179132,12956.982749 -12974.21837,12941.455038 -13047.144763,12925.074528 -13119.776124,12907.970861 -13192.294641,12890.014395 -13264.60642,12871.381719 -13336.670114,12851.937592 -13408.574016,12831.728961 -13480.229833,12810.708878 -13551.678913,12789.012586 -13622.879906,12766.504842 -13693.785867,12743.273941 -13764.532036,12719.278536 -13835.03012,12694.471679 -13905.186225,12669.029961 -13975.094243,12642.776791 -14044.665882,12615.665222 -14113.983835,12587.965739 -14183.053702,12559.454804 -14251.78159,12530.309007 -14320.173097,12500.304811 -14388.222624,12469.665754 -14456.024065,12438.215245 -14523.395232,12406.082926 -14590.471366,12373.227451 -14657.205521,12339.737115 -14723.556347,12305.476674 -14789.523846,12270.446129 -14855.149366,12234.780722 -14920.34461,12198.433507 -14985.156527,12161.316187 -15049.579517,12123.6523 -15113.619179,12085.218309 -15177.140272,12046.055562 -15240.40768,12006.3049 -15303.156518,11965.825482 -15365.475082,11924.664255 -15427.363371,11882.821219 -15488.774438,11840.384668 -15549.75523,11797.266308 -15610.258801,11753.554433 -15670.332096,11709.16075 -15729.839876,11664.126605 -15788.91738,11618.410651 -15847.517663,11572.101183 -15905.640724,11525.1982 -15963.198268,11477.654755 -16020.27859,11429.517797 -16076.881691,11380.787323 -16132.919275,11331.416389 -16188.344395,11281.493287 -16243.33924,11230.888377 -16297.76297,11179.866541 -16351.66813,11128.11595 -16404.960826,11075.813191 -16457.729353,11023.005213 -16509.932363,10969.556774 -16561.564258,10915.691409 -16612.630635,10861.185583 -16663.084549,10806.127591 -16712.926,10750.517431 -16762.243281,10694.402052 -16810.901151,10637.822801 -16858.946558,10580.691383 -16906.467795,10523.054745 -16953.288274,10464.818994 -16999.49069,10406.254612 -17045.127589,10347.049769 -17090.05813,10287.469349 -17134.376207,10227.336762 -17178.034873,10166.740303 -17221.075476,10105.815214 -17263.415321,10044.291011 -17305.095755,9982.302935 -17346.158125,9919.98623 -17386.608031,9857.117358 -17426.216338,9793.914257 -17465.300475,9730.205935 -17503.631308,9666.210332 -17541.349676,9601.662561 -17578.314739,9536.827508 -17614.620392,9471.528583 -17650.172739,9405.942376 -17685.065675,9339.892296 -17719.252253,9273.466639 -17752.685526,9206.7537 -17785.412441,9139.665184 -17817.432998,9072.20109 -17848.747197,9004.361419 -17879.396385,8936.281413 -17909.25092,8867.778882 -17938.305203,8799.077363 -17966.741423,8730.047215 -17994.38299,8660.594542 -18021.312599,8590.989828 -18047.488903,8521.097832 -18072.870554,8450.783312 -18097.540248,8380.316751 -18121.456636,8309.562907 -18144.661067,8238.657023 -18167.023897,8167.41691 -18188.633423,8095.889513 -18209.530991,8024.210077 -18229.628306,7952.331652 -18248.972316,7880.165945 -18267.604369,7807.848197 -18285.347874,7735.284515 -18302.379422,7662.568792 -18318.652065,7589.789323 -18334.083108,7516.675625 -18348.755246,7443.49818 -18362.715427,7370.168695 -18375.78706,7296.593276 -18388.188084,7223.001057 -18399.70056,7149.162904 -18410.454132,7075.261005 -18420.448798,7001.29536 -18429.643213,6927.130727 -18438.031775,6852.990643 -18445.620085,6778.651572 -18452.402543,6704.337049 -18458.473044,6629.870486 -18463.737692,6555.428472 -18468.155141,6480.875765 -18471.766738,6406.347606 -18474.578083,6331.62046 -18476.624923,6257.053105 -18477.824564,6182.375057 -18478.353595,6107.680211 -18477.941532,6033.05126 -18476.770564,5958.358564 -18474.882039,5883.737365 -18472.099367,5809.093766 -18468.599138,5734.521664 -18464.293057,5659.974111 -18459.181124,5585.451107 -18453.216392,5511.040947 -18446.534103,5436.702283 -18439.045962,5362.388167 -18430.705022,5288.186895 -18421.646525,5214.05712 -18411.735228,5140.040188 -18401.106375,5066.094752 -18389.577775,4992.350455 -18377.331618,4918.677654 -18364.320956,4845.164643 -18350.592738,4771.723129 -18335.964773,4698.482753 -18320.572304,4625.402168 -18304.41533,4552.481374 -18287.446905,4479.808666 -18269.760923,4407.207454 -18251.351784,4334.901274 -18232.042899,4262.796233 -18212.104752,4190.809635 -18191.219911,4119.11247 -18169.65886,4047.622044 -18147.4216,3976.338355 -18124.372888,3905.302752 -18100.512725,3834.515235 -18075.929405,3764.02275 -18050.622929,3693.825298 -18024.551948,3623.787637 -17997.710863,3554.133304 -17970.146621,3484.774003 -17941.90617,3415.621441 -17912.807321,3346.805258 -17883.073609,3278.331056 -17852.569793,3210.240181 -17821.389768,3142.356044 -17789.439639,3074.855235 -17756.719406,3007.737753 -17723.364311,2940.962252 -17689.286059,2874.481783 -17654.437704,2808.384641 -17618.995834,2742.764722 -17582.742512,2677.392888 -17545.895676,2612.498275 -17508.278737,2547.986991 -17470.026935,2483.817686 -17431.093324,2420.078656 -17391.430957,2356.858195 -17351.133728,2293.979715 -17310.15469,2231.531509 -17268.582137,2169.560525 -17226.23948,2107.972868 -17183.30331,2046.862433 -17139.726677,1986.317515 -17095.515183,1926.114577 -17050.574932,1866.430208 -17005.129462,1807.270009 -16959.002182,1748.540084 -16912.146147,1690.328728 -16864.831839,1632.553247 -16816.830122,1575.431577 -16768.193543,1518.651887 -16719.004797,1462.48466 -16669.17559,1406.882951 -16618.841164,1351.80541 -16567.866275,1297.293386 -16516.297873,1243.258584 -16464.135956,1189.701003 -16411.46322,1136.891129 -16358.243916,1084.470181 -16304.425499,1032.749992 -16250.013567,981.507025 -16195.137764,930.923468 -16139.709793,880.952376 -16083.688308,831.458505 -16027.202952,782.624045 -15970.165428,734.402049 -15912.664032,686.839464 -15854.657417,639.801048 -15796.051688,593.46339 -15737.117329,547.743796 -15677.542508,502.589718 -15617.59211,458.141999 -15557.136493,414.218448 -15496.258351,371.08955 -15434.828042,328.573116 -15373.069103,286.674746 -15310.71105,245.477133 -15248.024367,204.897585 -15184.962107,165.024394 -15121.435975,125.810614 -15057.399023,87.34454 -14993.033442,49.496529 -14928.292283,12.354876 -14863.087253,-24.127366 -14797.506645,-59.90325 -14731.638754,-94.925828 -14665.306992,-129.288996 -14598.599652,-162.945806 -14531.60503,-195.84931 -14464.234831,-228.046456 -14396.536001,-259.625539 -14328.502942,-290.363022 -14260.1826,-320.3472 -14191.486681,-349.62502 -14122.462132,-378.284776 -14053.191648,-406.055985 -13983.592534,-433.209131 -13913.794433,-459.562025 -13843.573807,-485.120265 -13773.20114,-509.966548 -13702.452896,-534.106473 -13631.593959,-557.399199 -13560.406392,-580.073861 -13488.97289,-601.859976 -13417.387348,-622.934133 -13345.514523,-643.254985 -13273.44271,-662.775585 -13201.083615,-681.54288 -13128.660774,-699.551269 -13056.038945,-716.759407 -12983.129834,-733.214239 -12910.156977,-748.910166 -12836.938185,-763.717546 -12763.702594,-777.854316 -12690.132774,-791.149486 -12616.499208,-803.685752 -12542.801896,-815.463112 -12468.993891,-826.393273 -12395.033846,-836.611477 -12320.963107,-845.982481 -12246.693381,-854.553232 -12172.495151,-862.406427 -12098.139281,-869.324127 -12023.678317,-875.618164 -11949.194956,-881.018054 -11874.736143,-885.612093 -11800.125289,-889.494173 -11725.492038,-892.482108 -11650.930282,-894.752485 -11576.257834,-896.175662 -11501.521639,-896.839935 -11426.898289,-896.651408 -11352.211192,-895.703977 -11277.548645,-893.950694 -11202.957593,-891.479854 -11128.344144,-888.114867 -11053.755243,-883.944028 -10979.237839,-879.055631 -10904.833278,-873.314436 -10830.364971,-866.814336 -10756.14475,-859.502785 -10681.860783,-851.432328 -10607.68966,-842.509073 -10533.678328,-832.821313 -10459.738491,-822.415996 -10385.911499,-811.15788 -10312.19735,-799.046965 -10238.689939,-786.25984 -10165.295372,-772.619916 -10091.972301,-758.262435 -10018.850369,-743.005208 -9945.935174,-727.071771 -9873.179771,-710.37383 -9800.537211,-692.82309 -9728.189683,-674.549193 -9656.001947,-655.510792 -9583.974002,-635.707886 -9512.194142,-615.093529 -9440.662368,-593.66772 -9369.337331,-571.565702 -9298.219033,-548.787474 -9227.390168,-525.062553 -9156.814988,-500.749717 -9086.576189,-475.578482 -9016.49718,-449.642743 -8946.760152,-423.072142 -8877.271209,-395.69009 -8808.077298,-367.584881 -8739.178421,-338.756515 -8670.615924,-309.06975 -8602.395407,-278.748124 -8534.469922,-247.70334 -8466.886418,-216.023695 -8399.639294,-183.485651 -8332.73415,-150.312745 -8266.212333,-116.369735 -8200.032496,-81.791864 -8134.235987,-46.443888 -8068.869753,-10.414103 -8003.845498,26.250544 -7939.204571,63.685294 -7874.993919,101.801854 -7811.213541,140.600223 -7747.775144,180.033454 -7684.855315,220.195441 -7622.277467,260.99229 -7560.176841,302.382654 -7498.547836,344.590068 -7437.307759,387.34405 -7376.633199,430.738493 -7316.253671,474.856094 -7256.486607,519.52586 -7197.149818,564.877436 -7138.378545,610.869474 -7080.037547,657.54332 -7022.220718,704.722387 -6964.834164,752.583262 -6908.060074,800.996304 -6851.716258,850.091155 -6795.984906,899.738173 -6740.730776,949.978706 -6685.953867,1000.812753 -6631.877717,1052.245913 -6578.190495,1104.225641 -6525.20403,1156.804483 -6472.741735,1209.888544 -6420.756662,1263.56612 -6369.519294,1317.754515 -6318.759148,1372.536425 -6268.523171,1427.823554 -6218.987953,1483.709796 -6169.976904,1540.101259 -6121.625265,1596.956593 -6073.886091,1654.364095 -6026.671085,1712.276816 -5980.11549,1770.653409 -5934.307601,1829.540821 -5889.023881,1888.933452 -5844.399572,1948.789956 -5800.299432,2009.151679 -5756.993945,2069.935927 -5714.347868,2131.184047 -5685.460312,2173.585333 -4766.841636,1685.147119 0,0"/>
</g>
</svg>