<?xml version="1.0" encoding="UTF-8"?>
<svg xmlns="http://www.w3.org/2000/svg" xmlns:xlink="http://www.w3.org/1999/xlink" width="2860" height="1860" viewBox="-1430 -930 2860 1860">
<defs>
<style type="text/css">
.l1d0 {stroke: #A1CAF1; fill: #A1CAF1; fill-opacity: 0.5;}
.l0d0 {stroke: #F38400; fill: #F38400; fill-opacity: 0.5;}
.l3d0 {stroke: #C2B280; fill: #C2B280; fill-opacity: 0.5;}
.l2d0 {stroke: #BE0032; fill: #BE0032; fill-opacity: 0.5;}
</style>
</defs>
<rect x="-1430" y="-930" width="2860" height="1860" fill="#222222" stroke="none"/>
<g id="TRANSISTOR" transform="scale(1 -1)">
<polygon id="0000022E552BE230" class="l0d0" points="-1300,-800 -1100,-800 -1100,-600 -1300,-600"/>
<polygon id="0000022E552BDDD0" class="l0d0" points="-1300,600 -1100,600 -1100,800 -1300,800"/>
<polygon id="0000022E552BE5B0" class="l0d0" points="1100,-800 1300,-800 1300,-600 1100,-600"/>
<polygon id="0000022E552BEE70" class="l0d0" points="1100,600 1300,600 1300,800 1100,800"/>
<polygon id="0000022E552BEB60" class="l1d0" points="-80,-300 80,-300 80,300 -80,300"/>
<polygon id="0000022E552BEEE0" class="l2d0" points="-80,60 80,60 80,280 -80,280"/>
<polygon id="0000022E552BF5E0" class="l2d0" points="-80,-280 80,-280 80,-60 -80,-60"/>
<polygon id="0000022E552BF260" class="l3d0" points="-700,150 80,150 80,250 -250,250 -250,450 -700,450"/>
<polygon id="0000022E552BEA80" class="l3d0" points="-700,-150 80,-150 80,-250 -250,-250 -250,-450 -700,-450"/>
<polygon id="0000022E552BE310" class="l3d0" points="-80,-40 500,-40 500,-200 900,-200 900,200 500,200 500,40 -80,40"/>
</g>
</svg>